<?xml version="1.0" standalone="no"?>
<!DOCTYPE svg PUBLIC "-//W3C//DTD SVG 20010904//EN"
 "http://www.w3.org/TR/2001/REC-SVG-20010904/DTD/svg10.dtd">
<svg version="1.0" xmlns="http://www.w3.org/2000/svg"
 width="155.000000pt" height="155.000000pt" viewBox="0 0 155.000000 155.000000"
 preserveAspectRatio="xMidYMid meet">
<metadata>
Created by potrace 1.14, written by Peter Selinger 2001-2017
</metadata>
<g transform="translate(0.000000,155.000000) scale(0.100000,-0.100000)"
fill="#000000" stroke="none">
<path d="M749 1370 c-8 -4 -27 -14 -44 -23 -16 -9 -46 -24 -65 -33 -19 -10
-41 -24 -48 -31 -8 -8 -27 -20 -43 -29 -28 -14 -31 -13 -63 11 -18 14 -38 25
-44 25 -6 0 -12 3 -14 8 -5 11 -91 66 -109 69 -9 1 -30 -12 -47 -28 -29 -28
-33 -35 -32 -54 1 -3 -6 -12 -14 -20 -12 -12 -14 -56 -14 -244 1 -125 -2 -233
-6 -239 -3 -6 -3 -13 2 -15 4 -3 6 -23 5 -44 -5 -78 -3 -339 3 -368 14 -74 70
-148 107 -141 36 7 57 17 57 29 0 6 3 7 6 4 4 -4 19 2 34 13 16 11 33 20 38
20 5 0 13 7 16 16 3 8 10 12 16 9 5 -3 10 -1 10 4 0 20 41 11 85 -19 24 -16
48 -30 54 -30 6 0 11 -4 11 -9 0 -5 23 -18 51 -30 55 -24 135 -29 168 -12 11
7 21 9 21 6 0 -4 14 3 30 15 17 12 30 19 30 15 0 -3 10 3 22 15 12 11 27 20
34 20 7 0 14 3 16 8 2 4 32 25 68 47 36 21 71 45 78 52 8 7 17 11 22 8 4 -3
11 2 14 11 3 8 10 13 15 10 5 -4 11 -3 13 2 1 4 25 25 52 45 27 20 46 37 43
37 -3 0 7 13 22 29 34 37 56 103 42 130 -11 20 -61 57 -73 53 -5 -1 -8 3 -8 8
0 6 -7 10 -15 10 -8 0 -15 5 -15 10 0 6 -11 16 -25 22 -14 6 -25 16 -25 23 0
6 27 28 59 49 33 21 69 46 80 55 25 22 33 64 16 87 -7 10 -11 23 -8 30 2 6 -3
14 -11 17 -9 4 -16 12 -16 19 0 8 -10 20 -22 28 -11 8 -28 23 -37 33 -8 9 -21
17 -28 17 -7 0 -13 5 -13 10 0 6 -7 10 -15 10 -8 0 -15 5 -15 10 0 6 -7 10
-15 10 -9 0 -18 7 -21 15 -4 8 -10 12 -15 9 -5 -3 -9 0 -9 5 0 6 -7 11 -15 11
-8 0 -15 5 -15 10 0 6 -7 10 -15 10 -8 0 -15 5 -15 10 0 6 -7 10 -15 10 -8 0
-23 9 -32 20 -10 11 -23 20 -30 20 -6 0 -18 6 -25 13 -24 24 -112 70 -143 74
-63 8 -92 9 -106 3z"/>
</g>
</svg>
